# xmcd
#
# Track frame offsets:
#	151
#	25842
#	49897
#	69664
#	90703
#	112714
#	136901
#	159816
#	180255
#	199122
#	219937
#	243228
#	264489
#	283958
#	299595
#	321386
#
# Disc length: 4565 seconds
#
# Revision: 1
# Processed by: cddbd v1.5.1PL0 Copyright (c) Steve Scherf et al.
# Submitted via: CDex 1.50Beta5
#
DISCID=e511d310
DTITLE=笠原弘子 - Single collection
DYEAR=1900
DGENRE=POP
TTITLE0=Wing for Love
TTITLE1=希望という名の神話
TTITLE2=Key of fortune
TTITLE3=光見つめて
TTITLE4=STAND THE NIGHT
TTITLE5=MY PRAYER
TTITLE6=BABY☆LOVE
TTITLE7=もしもあしたが休みなら
TTITLE8=夢の渚
TTITLE9=特別な涙
TTITLE10=そっと夜に泣こう
TTITLE11=約束
TTITLE12=本当の私に逢いたくて
TTITLE13=Si Si Ciao〜ロマンの丘で〜
TTITLE14=特別な朝
TTITLE15=恋にNO RETURN!!
EXTD=
EXTT0=
EXTT1=
EXTT2=
EXTT3=
EXTT4=
EXTT5=
EXTT6=
EXTT7=
EXTT8=
EXTT9=
EXTT10=
EXTT11=
EXTT12=
EXTT13=
EXTT14=
EXTT15=
PLAYORDER=
